<svg id="Capa_1" enable-background="new 0 0 512 512" height="512" viewBox="0 0 512 512" width="512" xmlns="http://www.w3.org/2000/svg"><g><path d="m405.962 62.116c-41.411-41.411-95.687-62.116-149.962-62.116l-20.016 212.129 20.016 299.871 149.961-149.961c82.822-82.822 82.822-217.101.001-299.923z" fill="#e50058"/><path d="m106.039 62.116c-82.822 82.822-82.822 217.101 0 299.923l149.961 149.961v-512c-54.275 0-108.551 20.705-149.961 62.116z" fill="#ff415b"/><path d="m256 81.896-20.016 130.233 20.016 130.233c71.811 0 130.232-58.422 130.232-130.233s-58.422-130.233-130.232-130.233z" fill="#b4d2d7"/><path d="m125.768 212.129c0 71.811 58.422 130.233 130.232 130.233v-260.466c-71.811 0-130.232 58.422-130.232 130.233z" fill="#e1ebf0"/><path d="m256 111.896-20.016 100.233 20.016 100.233c55.269 0 100.232-44.964 100.232-100.233s-44.964-100.233-100.232-100.233z" fill="#e1ebf0"/><path d="m155.768 212.129c0 55.269 44.964 100.233 100.232 100.233v-200.466c-55.269 0-100.232 44.964-100.232 100.233z" fill="#fff5f5"/></g></svg>