<svg id="Capa_1" enable-background="new 0 0 508 508" height="512" viewBox="0 0 508 508" width="512" xmlns="http://www.w3.org/2000/svg"><g><path d="m464.136 472.864c-1.464-15.27-3.104-30.525-4.917-45.745-3.699-31.045-23.017-56.784-49.505-69.85v-163.269c0-40.804-33.196-74-74-74h-16v-90c0-16.542-13.458-30-30-30h-100c-16.542 0-30 13.458-30 30v90h-16c-40.804 0-74 33.196-74 74v243.413c-15.001 4.344-26 18.205-26 34.587 0 19.851 16.149 36 36 36s36-16.149 36-36c0-5.744-1.352-11.177-3.755-16h75.022c-.587 5.619-1.15 11.24-1.689 16.864-1.806 18.826 12.935 35.136 31.847 35.136h215.149c18.913 0 33.654-16.31 31.848-35.136zm-284.422-442.864c0-5.514 4.486-10 10-10h100c5.514 0 10 4.486 10 10v10h-120zm0 30h120v49.948c-13.945-18.613-35.973-29.948-60-29.948s-46.055 11.335-60 29.948zm102.462 60h-84.925c10.269-12.48 25.702-20 42.462-20s32.195 7.52 42.463 20zm-202.462 368c-8.822 0-16-7.178-16-16s7.178-16 16-16 16 7.178 16 16-7.178 16-16 16zm10-52v-20h10c13.037 0 24.159 8.36 28.286 20zm58.995 0c-4.645-22.795-24.849-40-48.995-40h-10v-150c0-29.823 24.177-54 54-54h47.069c5.511 0 10-4.49 10-10s-4.489-10-10-10h-47.069c-21.239 0-40.505 7.668-54 22 0-29.776 24.225-54 54-54h192c29.775 0 54 24.224 54 54-13.502-14.404-32.7-22-54-22h-54.931c-5.51 0-10 4.49-10 10s4.49 10 10 10h54.931c29.823 0 54 24.177 54 54v99.542c-13.27-23.079-37.86-37.542-65-37.542-29.174 0-55.402 16.711-67.789 42.873-35.075 9.083-62.255 38.806-66.716 76.247-.353 2.959-.698 5.919-1.038 8.88zm218.467-88h-84.925c10.269-12.48 25.702-20 42.462-20s32.195 7.52 42.463 20zm62.683 140h-210.19c-8.196 0-14.634-7.004-13.952-15.172 1.353-16.192 3.369-35.772 5.127-46.518 5.52-33.79 34.46-58.31 68.82-58.31h90.1c34.36 0 63.3 24.52 68.82 58.31 1.756 10.739 3.831 30.299 5.224 46.484.703 8.18-5.739 15.206-13.949 15.206zm-204.076-306c0-5.51 4.49-10 10-10 5.511 0 10 4.49 10 10s-4.489 10-10 10c-5.51 0-10-4.49-10-10z"/></g></svg>