<svg height="512" viewBox="0 0 64 64" width="512" xmlns="http://www.w3.org/2000/svg"><path d="m55 25h4v2h-4z" fill="#d80027"/><path d="m53.535 21.465h4v2h-4z" fill="#d80027" transform="matrix(.707 -.707 .707 .707 .381 45.849)"/><path d="m30 13h4v8h-4z" fill="#e0e0e2"/><path d="m59 50h-54l2-6h50z" fill="#e0e0e2"/><path d="m3 50h58v6h-58z" fill="#898890"/><path d="m40 10.5a2.492 2.492 0 0 1 -2.5 2.5h-11a2.5 2.5 0 1 1 0-5h11a2.5 2.5 0 0 1 2.5 2.5z" fill="#ff9811"/><path d="m11 44h-4a24.983 24.983 0 0 1 23-24.91c.66-.06 1.33-.09 2-.09s1.34.03 2 .09a24.983 24.983 0 0 1 23 24.91z" fill="#ff5023"/><path d="m12 44h-2a22.025 22.025 0 0 1 22-22v2a20.023 20.023 0 0 0 -20 20z" fill="#ffbcab"/><g fill="#d80027"><path d="m5 25h4v2h-4z"/><path d="m11 19h2v4h-2z"/><path d="m7.465 20.464h2v4h-2z" transform="matrix(.707 -.707 .707 .707 -13.406 12.565)"/><path d="m51 19h2v4h-2z"/></g><path d="m30 13h4v1h-4z"/><rect fill="#ffc477" height="2" rx="1" width="7" x="26" y="9"/><path d="m5 51h9v2h-9z" fill="#acabb1"/></svg>