<?xml version="1.0" encoding="iso-8859-1"?>
<!-- Generator: Adobe Illustrator 19.0.0, SVG Export Plug-In . SVG Version: 6.00 Build 0)  -->
<svg version="1.1" id="Capa_1" xmlns="http://www.w3.org/2000/svg" xmlns:xlink="http://www.w3.org/1999/xlink" x="0px" y="0px"
	 viewBox="0 0 512 512" style="enable-background:new 0 0 512 512;" xml:space="preserve">
<linearGradient id="SVGID_1_" gradientUnits="userSpaceOnUse" x1="0" y1="258" x2="512" y2="258" gradientTransform="matrix(1 0 0 -1 0 514)">
	<stop  offset="0" style="stop-color:#00F2FE"/>
	<stop  offset="0.021" style="stop-color:#03EFFE"/>
	<stop  offset="0.293" style="stop-color:#24D2FE"/>
	<stop  offset="0.554" style="stop-color:#3CBDFE"/>
	<stop  offset="0.796" style="stop-color:#4AB0FE"/>
	<stop  offset="1" style="stop-color:#4FACFE"/>
</linearGradient>
<path style="fill:url(#SVGID_1_);" d="M472,332V120c0-22.056-17.944-40-40-40h-26v20c0,11.046-8.954,20-20,20s-20-8.954-20-20V80
	h-91v20c0,11.046-8.954,20-20,20s-20-8.954-20-20V80h-90v20c0,11.046-8.954,20-20,20s-20-8.954-20-20V80H80
	c-22.056,0-40,17.944-40,40v312c0,22.056,17.944,40,40,40h352c22.056,0,40-17.944,40-40c0-11.046,8.954-20,20-20s20,8.954,20,20
	c0,44.112-35.888,80-80,80H80c-44.112,0-80-35.888-80-80V120c0-44.112,35.888-80,80-80h25V20c0-11.046,8.954-20,20-20
	s20,8.954,20,20v20h90V20c0-11.046,8.954-20,20-20c11.046,0,20,8.954,20,20v20h91V20c0-11.046,8.954-20,20-20s20,8.954,20,20v20h26
	c44.112,0,80,35.888,80,80v212c0,11.046-8.954,20-20,20S472,343.046,472,332z M145,210c0-11.046-8.954-20-20-20s-20,8.954-20,20l0,0
	c0,11.046,8.954,20,20,20S145,221.046,145,210L145,210z M319,210c0-11.046-8.954-20-20-20s-20,8.954-20,20l0,0
	c0,11.046,8.954,20,20,20S319,221.046,319,210L319,210z M406,210c0-11.046-8.954-20-20-20s-20,8.954-20,20l0,0
	c0,11.046,8.954,20,20,20S406,221.046,406,210L406,210z M145,297c0-11.046-8.954-20-20-20s-20,8.954-20,20l0,0
	c0,11.046,8.954,20,20,20S145,308.046,145,297L145,297z M125,364c-11.046,0-20,8.954-20,20l0,0c0,11.046,8.954,20,20,20
	s20-8.954,20-20l0,0C145,372.954,136.046,364,125,364z M232,210c0-11.046-8.954-20-20-20s-20,8.954-20,20l0,0
	c0,11.046,8.954,20,20,20S232,221.046,232,210L232,210z M232,297c0-11.046-8.954-20-20-20s-20,8.954-20,20l0,0
	c0,11.046,8.954,20,20,20S232,308.046,232,297L232,297z M212,364c-11.046,0-20,8.954-20,20l0,0c0,11.046,8.954,20,20,20
	s20-8.954,20-20l0,0C232,372.954,223.046,364,212,364z M319,297c0-11.046-8.954-20-20-20s-20,8.954-20,20l0,0
	c0,11.046,8.954,20,20,20S319,308.046,319,297L319,297z M386,277c-11.046,0-20,8.954-20,20l0,0c0,11.046,8.954,20,20,20
	s20-8.954,20-20l0,0C406,285.954,397.046,277,386,277z M299,364c-11.046,0-20,8.954-20,20l0,0c0,11.046,8.954,20,20,20
	s20-8.954,20-20l0,0C319,372.954,310.046,364,299,364z"/>
<g>
</g>
<g>
</g>
<g>
</g>
<g>
</g>
<g>
</g>
<g>
</g>
<g>
</g>
<g>
</g>
<g>
</g>
<g>
</g>
<g>
</g>
<g>
</g>
<g>
</g>
<g>
</g>
<g>
</g>
</svg>
