<?xml version="1.0" encoding="iso-8859-1"?>
<!-- Generator: Adobe Illustrator 19.0.0, SVG Export Plug-In . SVG Version: 6.00 Build 0)  -->
<svg xmlns="http://www.w3.org/2000/svg" xmlns:xlink="http://www.w3.org/1999/xlink" version="1.1" id="Layer_1" x="0px" y="0px" viewBox="0 0 512 512" style="enable-background:new 0 0 512 512;" xml:space="preserve" width="512" height="512">
<g id="XMLID_1193_">
	<ellipse id="XMLID_3169_" style="fill:#36D28F;" cx="82" cy="222.038" rx="72" ry="131.038"/>
	<path id="XMLID_3168_" style="fill:#36D28F;" d="M491.932,162.589c1.599-9.171,2.463-18.931,2.463-29.058   c0-53.312-23.896-96.531-53.374-96.531s-53.374,43.218-53.374,96.531c0,10.126,0.864,19.887,2.463,29.058   c-6.357,10.912-10.068,23.98-10.068,38.036c0,38.176,27.301,69.124,60.979,69.124S502,238.801,502,200.624   C502,186.569,498.289,173.501,491.932,162.589z"/>
	<g id="XMLID_1885_">
		<path id="XMLID_1906_" style="fill:#C9F3FF;" d="M182.124,350.56l14.475-48.382c6.351-21.228,25.881-35.771,48.039-35.771h65.575    c28.373,0,55.359,12.273,74.006,33.658l43.94,50.391L182.124,350.56z"/>
		<path id="XMLID_1905_" style="fill:#FFC66C;" d="M472.235,444.447H502v-20.205c0-40.676-32.975-73.651-73.651-73.651H174.403    h-0.017c-13.672,0.009-24.75,11.095-24.75,24.767v69.089h32.806H472.235z"/>
		<path id="XMLID_1357_" style="fill:#FFFFFF;" d="M183.589,350.591h-9.186h-0.017c-13.672,0.009-24.75,11.095-24.75,24.767v9.604    h14.866c10.542,0,19.088-8.546,19.088-19.088V350.591z"/>
		<circle id="XMLID_1904_" style="fill:#898998;" cx="216.112" cy="444.388" r="30.612"/>
		<circle id="XMLID_1903_" style="fill:#898998;" cx="421.768" cy="444.388" r="30.612"/>
		<path id="XMLID_1902_" style="fill:#FF5D5D;" d="M447.03,352.696v22.193c0,9.463,7.672,17.135,17.135,17.135h30.421    C484.219,373.674,467.314,359.508,447.03,352.696z"/>
	</g>
	<g id="XMLID_1349_">
		<path id="XMLID_1630_" d="M451.021,343.707v-64.759C485.439,273.511,512,240.468,512,200.624c0-14.071-3.324-27.765-9.641-39.837    c1.352-8.855,2.036-18.007,2.036-27.257c0-59.736-27.837-106.53-63.374-106.53s-63.374,46.794-63.374,106.53    c0,9.25,0.685,18.401,2.036,27.257c-6.317,12.071-9.641,25.765-9.641,39.837c0,39.844,26.561,72.887,60.979,78.323v59.575    l-39.265-45.03c-20.552-23.568-50.273-37.086-81.543-37.086h-65.575c-26.368,0-50.062,17.644-57.619,42.905l-12.343,41.254h-0.266    c-19.164,0.007-34.755,15.604-34.755,34.768v69.055c0,5.522,4.477,10,10,10h27.094c0.96,3.776,2.454,7.339,4.391,10.612H92.511    V361.976C133.354,353.356,164,294.987,164,222.038C164,142.951,127.981,81,82,81S0,142.951,0,222.038    c0,73.556,31.16,132.279,72.511,140.133V465H50c-5.523,0-10,4.478-10,10s4.477,10,10,10h166.112    c18.944,0,34.897-13.039,39.363-30.612h126.929c0.96,3.776,2.454,7.339,4.391,10.612h-71.734c-5.523,0-10,4.478-10,10    s4.477,10,10,10h106.706c18.944,0,34.896-13.039,39.363-30.612H502c5.523,0,10-4.478,10-10v-20.198    C512,385.927,486.16,353.608,451.021,343.707z M20,222.038C20,156.429,48.393,101,82,101s62,55.429,62,121.038    c0,58.635-22.678,109.133-51.489,119.207v-60.708l29.554-34.784c3.576-4.209,3.063-10.52-1.146-14.096    c-4.211-3.576-10.521-3.063-14.096,1.146L92.511,249.65v-49.668l23.909-27.499c3.624-4.168,3.183-10.484-0.985-14.108    s-10.484-3.181-14.107,0.985l-8.816,10.14v-14.771c0-5.522-4.477-10-10-10s-10,4.478-10,10V216.8l-17.134-19.708    c-3.624-4.168-9.939-4.607-14.108-0.985c-4.168,3.624-4.609,9.94-0.986,14.108l32.228,37.069v94.302    C43.217,332.364,20,281.366,20,222.038z M475.172,381.139H464.12c-3.373,0-6.117-2.744-6.117-6.117v-7.112    C464.46,371.323,470.265,375.809,475.172,381.139z M390.043,200.624c0-11.811,3.011-23.223,8.708-33.001    c1.187-2.037,1.616-4.429,1.211-6.751c-1.536-8.811-2.314-18.009-2.314-27.342c0-24.12,5.108-46.643,14.384-63.418    C420.153,55.424,430.72,47,441.021,47s20.868,8.424,28.989,23.112c9.276,16.775,14.384,39.298,14.384,63.418    c0,9.333-0.779,18.531-2.314,27.342c-0.405,2.322,0.024,4.713,1.211,6.751c5.697,9.779,8.708,21.19,8.708,33.001    c0,28.632-17.641,52.569-40.979,57.975v-35.69c0-0.003,0-0.007,0-0.01v-120.73c0-5.522-4.477-10-10-10s-10,4.478-10,10v96.593    l-8.296-8.296c-3.905-3.904-10.237-3.904-14.143,0c-3.905,3.905-3.905,10.237,0,14.143l22.438,22.438v31.553    C407.684,253.193,390.043,229.256,390.043,200.624z M376.682,306.637l29.585,33.929H295.984v-64.159h14.229    C335.703,276.406,359.93,287.425,376.682,306.637z M206.18,305.044c5.044-16.861,20.858-28.638,38.458-28.638h31.346v64.159    h-80.432L206.18,305.044z M173.589,360.607v5.266c0,5.011-4.077,9.088-9.088,9.088h-4.827    C159.866,367.271,165.96,361.035,173.589,360.607z M159.654,394.961h4.846c16.04,0,29.088-13.049,29.088-29.088v-5.308h82.395    v73.822h-20.509c-4.467-17.573-20.42-30.612-39.363-30.612s-34.897,13.039-39.363,30.612h-17.094V394.961z M216.112,465    c-11.366,0-20.612-9.247-20.612-20.612s9.247-20.612,20.612-20.612s20.612,9.247,20.612,20.612S227.478,465,216.112,465z     M421.768,465c-11.366,0-20.612-9.247-20.612-20.612s9.247-20.612,20.612-20.612s20.612,9.247,20.612,20.612    S433.133,465,421.768,465z M492,434.388h-30.869c-4.467-17.573-20.42-30.612-39.363-30.612s-34.897,13.039-39.363,30.612h-86.42    v-73.822h132.392c3.272,0,6.486,0.25,9.626,0.728v13.728c0,14.401,11.716,26.117,26.117,26.117h23.541    c2.791,7.153,4.34,14.922,4.34,23.051V434.388z"/>
		<path id="XMLID_1646_" d="M326.85,371.84c-2.63,0-5.21,1.07-7.07,2.93c-1.86,1.86-2.93,4.44-2.93,7.07s1.07,5.21,2.93,7.07    c1.86,1.859,4.44,2.93,7.07,2.93c2.63,0,5.21-1.07,7.07-2.93c1.86-1.86,2.93-4.44,2.93-7.07s-1.07-5.21-2.93-7.07    C332.06,372.91,329.48,371.84,326.85,371.84z"/>
		<path id="XMLID_1647_" d="M421.77,434.39c-2.63,0-5.21,1.061-7.07,2.93c-1.86,1.86-2.93,4.44-2.93,7.07s1.07,5.21,2.93,7.07    c1.86,1.859,4.44,2.93,7.07,2.93c2.63,0,5.21-1.07,7.07-2.93c1.86-1.86,2.93-4.44,2.93-7.07c0-2.64-1.07-5.21-2.93-7.07    C426.98,435.45,424.4,434.39,421.77,434.39z"/>
		<path id="XMLID_1650_" d="M216.11,434.39c-2.63,0-5.21,1.061-7.07,2.93c-1.86,1.86-2.93,4.431-2.93,7.07    c0,2.63,1.07,5.21,2.93,7.07c1.86,1.859,4.44,2.93,7.07,2.93s5.21-1.07,7.07-2.93c1.86-1.86,2.93-4.44,2.93-7.07    s-1.07-5.21-2.93-7.07C221.32,435.45,218.74,434.39,216.11,434.39z"/>
		<path id="XMLID_1651_" d="M10,465c-2.63,0-5.21,1.069-7.07,2.93C1.07,469.79,0,472.37,0,475s1.07,5.21,2.93,7.069    C4.79,483.93,7.37,485,10,485c2.63,0,5.21-1.07,7.07-2.931C18.93,480.21,20,477.63,20,475s-1.07-5.21-2.93-7.07S12.63,465,10,465z    "/>
	</g>
</g>















</svg>
