<svg height="512" viewBox="0 0 64 64" width="512" xmlns="http://www.w3.org/2000/svg" xmlns:xlink="http://www.w3.org/1999/xlink"><linearGradient id="New_Gradient_Swatch_3" gradientUnits="userSpaceOnUse" x1="32" x2="32" y1="62.529" y2="3.126"><stop offset="0" stop-color="#006df0"/><stop offset="1" stop-color="#00e7f0"/></linearGradient><linearGradient id="New_Gradient_Swatch_3-2" x1="23" x2="23" xlink:href="#New_Gradient_Swatch_3" y1="62.529" y2="3.126"/><linearGradient id="New_Gradient_Swatch_3-3" x1="38" x2="38" xlink:href="#New_Gradient_Swatch_3" y1="62.529" y2="3.126"/><g id="Calendar"><path d="m55 9h-5v-3a4 4 0 0 0 -8 0v3h-20v-3a4 4 0 0 0 -8 0v3h-5a7.008 7.008 0 0 0 -7 7v39a7.008 7.008 0 0 0 7 7h46a7.008 7.008 0 0 0 7-7v-39a7.008 7.008 0 0 0 -7-7zm-11-3a2 2 0 0 1 4 0v8a2 2 0 0 1 -4 0zm-28 0a2 2 0 0 1 4 0v8a2 2 0 0 1 -4 0zm-12 10a5.006 5.006 0 0 1 5-5h5v3a4 4 0 0 0 8 0v-3h20v3a4 4 0 0 0 8 0v-3h5a5.006 5.006 0 0 1 5 5v6h-56zm56 39a5.006 5.006 0 0 1 -5 5h-46a5.006 5.006 0 0 1 -5-5v-31h56z" fill="url(#New_Gradient_Swatch_3)"/><path d="m24.275 39.139 4.432-4.432a1 1 0 0 0 -.707-1.707h-9a1 1 0 0 0 0 2h6.586l-4.293 4.293a1 1 0 0 0 0 1.414.968.968 0 0 0 .531.259.366.366 0 0 0 .176.034h1a4 4 0 0 1 0 8h-1a3 3 0 0 1 -3-3 1 1 0 0 0 -2 0 5.006 5.006 0 0 0 5 5h1a6 6 0 0 0 1.275-11.861z" fill="url(#New_Gradient_Swatch_3-2)"/><path d="m40 51a1 1 0 0 1 -1-1v-13.586l-2.293 2.293a1 1 0 0 1 -1.414-1.414l4-4a1 1 0 0 1 1.707.707v16a1 1 0 0 1 -1 1z" fill="url(#New_Gradient_Swatch_3-3)"/></g></svg>