<svg height="512pt" viewBox="0 -39 512 512" width="512pt" xmlns="http://www.w3.org/2000/svg"><path d="m512 404.476562c0 7.890626-1.125 15.515626-3.21875 22.726563-1.234375 4.269531-5.160156 7.199219-9.605469 7.199219h-144.214843c-3.671876-9.257813-5.6875-19.355469-5.6875-29.925782 0-42.617187 32.769531-77.582031 74.480468-81.074218 2.265625-.195313 4.5625-.289063 6.882813-.289063 44.9375 0 81.363281 36.425781 81.363281 81.363281zm0 0" fill="#84b75b"/><path d="m467.21875 414.984375c0 6.644531-.988281 13.15625-2.945312 19.417969h-109.3125c-3.671876-9.257813-5.6875-19.355469-5.6875-29.925782 0-42.617187 32.769531-77.582031 74.480468-81.074218v30.152344c25.292969 8.964843 43.464844 33.109374 43.464844 61.429687zm0 0" fill="#69a833"/><path d="m157.046875 434.398438c3.851563-9.738282 5.882813-20.394532 5.664063-31.550782-.828126-42.398437-34.652344-77.417968-76.996094-79.621094-46.910156-2.445312-85.714844 34.871094-85.714844 81.25 0 7.886719 1.121094 15.511719 3.21875 22.726563 1.238281 4.269531 5.160156 7.195313 9.605469 7.195313zm0 0" fill="#a0d37d"/><path d="m411.394531 155.039062v279.355469h-320.03125c-5.523437 0-10-4.476562-10-10v-269.355469l165.015625-148.160156zm0 0" fill="#ebeef2"/><path d="m162.546875 434.398438 248.847656-248.863282v248.863282zm0 0" fill="#d3d8df"/><path d="m366.867188 272.832031h-19.050782c-5.84375 0-10.582031 4.738281-10.582031 10.582031v89.976563h40.214844v-89.976563c0-5.84375-4.738281-10.582031-10.582031-10.582031zm0 0" fill="#7fb7ea"/><path d="m155.523438 373.390625v-89.976563c0-5.84375-4.738282-10.582031-10.582032-10.582031h-19.046875c-5.847656 0-10.585937 4.738281-10.585937 10.582031v89.976563" fill="#7fb7ea"/><path d="m411.398438 434.398438h-320.035157c-5.523437 0-10-4.476563-10-10v-51.007813h330.035157zm0 0" fill="#5f9eeb"/><path d="m411.394531 373.390625v61.007813h-320.027343c-5.523438 0-10-4.476563-10-10v-51.007813zm0 0" fill="#5f9eeb"/><path d="m411.394531 373.390625v61.007813h-248.847656l61.007813-61.007813zm0 0" fill="#3a82d0"/><path d="m298.097656 283.414062v150.984376h-103.433594v-150.984376c0-5.84375 4.738282-10.582031 10.582032-10.582031h82.269531c5.84375 0 10.582031 4.738281 10.582031 10.582031zm0 0" fill="#7b8c98"/><path d="m298.097656 298.835938v135.5625h-103.433594v-32.117188zm0 0" fill="#627687"/><path d="m411.394531 155.039062v65.53125l-165.015625-148.152343-165.015625 148.164062v-65.542969l165.015625-148.160156zm0 0" fill="#d3d8df"/><path d="m427.128906 218.089844-180.75-162.277344-180.746094 162.277344c-4.351562 3.90625-11.042968 3.542968-14.945312-.804688l-17.675781-19.683594c-3.902344-4.351562-3.542969-11.042968.804687-14.945312l196.65625-176.5625c9.050782-8.125 22.765625-8.125 31.8125 0l196.65625 176.5625c4.351563 3.90625 4.710938 10.59375.804688 14.945312l-17.671875 19.683594c-3.90625 4.351563-10.597657 4.710938-14.945313.804688zm0 0" fill="#5f9eeb"/><path d="m272.835938 370.105469c-4.265626 0-7.726563-3.457031-7.726563-7.726563v-8.761718c0-4.269532 3.460937-7.726563 7.726563-7.726563 4.269531 0 7.726562 3.457031 7.726562 7.726563v8.761718c0 4.269532-3.457031 7.726563-7.726562 7.726563zm0 0" fill="#455e6d"/><path d="m288.664062 188.863281c0 23.355469-18.929687 42.285157-42.285156 42.285157-23.351562 0-42.285156-18.929688-42.285156-42.285157 0-23.351562 18.933594-42.285156 42.285156-42.285156 23.355469 0 42.285156 18.933594 42.285156 42.285156zm0 0" fill="#eb5777"/><path d="m453.558594 426.679688c1.050781-4.652344 1.488281-9.539063 1.222656-14.570313-1.433594-27.023437-23.539062-48.8125-50.582031-49.875-30.128907-1.191406-54.925781 22.882813-54.925781 52.75 0 6.855469 1.308593 13.40625 3.6875 19.414063h90.855468c4.644532 0 8.714844-3.1875 9.742188-7.71875zm0 0" fill="#a0d37d"/></svg>