<svg height="512pt" viewBox="0 -35 512 512" width="512pt" xmlns="http://www.w3.org/2000/svg"><path d="m374.28125 143.097656c-10.421875 0-19.308594-7.957031-20.261719-18.535156l-4.722656-52.328125c-1.234375-13.683594-12.523437-24-26.261719-24h-134.070312c-13.738282 0-25.027344 10.316406-26.261719 24l-4.722656 52.328125c-1.007813 11.203125-10.902344 19.464844-22.113281 18.453125-11.203126-1.011719-19.464844-10.910156-18.457032-22.117187l4.722656-52.324219c3.140626-34.816407 31.875-61.074219 66.835938-61.074219h134.066406c34.960938 0 63.695313 26.257812 66.835938 61.074219l4.722656 52.324219c1.007812 11.207031-7.253906 21.105468-18.457031 22.117187-.625.054687-1.242188.082031-1.855469.082031zm0 0" fill="#8ee2cf"/><path d="m230.15625 7.5h-41.191406c-34.960938 0-63.691406 26.253906-66.832032 61.070312l-4.722656 52.328126c-1.011718 11.203124 7.25 21.105468 18.457032 22.117187 11.210937 1.011719 21.101562-7.253906 22.113281-18.457031l4.722656-52.328125c1.234375-13.679688 12.523437-23.996094 26.261719-23.996094h48.277344c-6.167969-11.46875-10.082032-27.078125-7.085938-40.734375zm0 0" fill="#6fce91"/><path d="m435.339844 433.875h-358.679688c-38.195312 0-69.160156-30.964844-69.160156-69.160156v-175.738282c0-38.195312 30.964844-69.160156 69.160156-69.160156h358.679688c38.195312 0 69.160156 30.964844 69.160156 69.160156v175.738282c0 38.195312-30.964844 69.160156-69.160156 69.160156zm0 0" fill="#a3defe"/><path d="m213.105469 119.816406h-136.445313c-38.195312 0-69.160156 30.964844-69.160156 69.160156v175.738282c0 38.195312 30.964844 69.160156 69.160156 69.160156h196.664063c-72.128907-72.519531-84.089844-210.601562-60.21875-314.058594zm0 0" fill="#7acefa"/><path d="m206.773438 205.128906c0-12.660156-12.886719-22.925781-28.785157-22.925781-15.898437 0-28.785156 10.265625-28.785156 22.925781s12.886719 22.921875 28.785156 22.921875c15.898438 0 28.785157-10.261719 28.785157-22.921875zm0 0" fill="#fff"/><path d="m362.796875 205.128906c0-12.660156-12.886719-22.925781-28.785156-22.925781-15.898438 0-28.785157 10.265625-28.785157 22.925781s12.886719 22.921875 28.785157 22.921875c15.898437 0 28.785156-10.261719 28.785156-22.921875zm0 0" fill="#fff"/><path d="m82.3125 119.816406h48.816406v314.058594h-48.816406zm0 0" fill="#908cd6"/><path d="m380.871094 119.816406h48.816406v314.058594h-48.816406zm0 0" fill="#b49cdc"/><path d="m156.144531 88.574219h-29.984375c-6.917968 0-13.023437 4.519531-15.046875 11.132812l-6.144531 20.109375h72.367188l-6.144532-20.109375c-2.023437-6.613281-8.128906-11.132812-15.046875-11.132812zm0 0" fill="#f7ef87"/><path d="m355.855469 88.574219h29.984375c6.917968 0 13.023437 4.519531 15.046875 11.132812l6.144531 20.109375h-72.367188l6.144532-20.109375c2.023437-6.613281 8.128906-11.132812 15.046875-11.132812zm0 0" fill="#f7ef87"/><path d="m460.460938 322.894531c0 43.957031-35.632813 79.589844-79.589844 79.589844-43.953125 0-79.585938-35.632813-79.585938-79.589844 0-43.953125 35.632813-79.585937 79.585938-79.585937 43.957031 0 79.589844 35.632812 79.589844 79.585937zm0 0" fill="#fff"/><g fill="#e8899e"><path d="m380.871094 380.734375c-14.816406 0-29.636719-5.640625-40.917969-16.921875-10.929687-10.929688-16.945313-25.460938-16.945313-40.917969s6.015626-29.988281 16.945313-40.917969c22.566406-22.5625 59.273437-22.5625 81.839844 0 10.929687 10.929688 16.945312 25.460938 16.945312 40.917969s-6.015625 29.992188-16.945312 40.917969c-11.28125 11.285156-26.101563 16.921875-40.921875 16.921875zm0-100.6875c-10.976563 0-21.953125 4.179687-30.308594 12.539063-8.097656 8.09375-12.554688 18.859374-12.554688 30.308593 0 11.453125 4.457032 22.214844 12.554688 30.3125 16.710938 16.714844 43.910156 16.714844 60.621094 0 8.097656-8.097656 12.558594-18.859375 12.558594-30.3125 0-11.449219-4.460938-22.214843-12.558594-30.308593-8.355469-8.359376-19.332032-12.539063-30.3125-12.539063zm0 0"/><path d="m416.488281 366.011719c-1.917969 0-3.839843-.734375-5.304687-2.199219l-71.230469-71.226562c-2.929687-2.929688-2.929687-7.679688 0-10.609376 2.929687-2.929687 7.679687-2.929687 10.609375 0l71.226562 71.230469c2.929688 2.929688 2.929688 7.679688 0 10.605469-1.460937 1.464844-3.382812 2.199219-5.300781 2.199219zm0 0"/><path d="m380.871094 380.75c-4.140625 0-7.5-3.355469-7.5-7.5v-57.851562h57.855468c4.144532 0 7.5 3.355468 7.5 7.5 0 4.140624-3.355468 7.5-7.5 7.5h-42.855468v42.851562c0 4.144531-3.355469 7.5-7.5 7.5zm0 0"/></g><path d="m112.390625 294.753906c0-20.511718 16.628906-37.140625 37.136719-37.140625 11.429687 0 21.648437 5.167969 28.460937 13.289063 6.8125-8.121094 17.03125-13.289063 28.460938-13.289063 20.511719 0 37.136719 16.628907 37.136719 37.140625 0 27.855469-29.332032 60.128906-51.292969 76.433594-8.492188 6.304688-20.117188 6.304688-28.609375 0-21.960938-16.304688-51.292969-48.578125-51.292969-76.433594zm0 0" fill="#f7ef87"/><path d="m163.683594 371.1875c8.492187 6.304688 20.117187 6.304688 28.609375 0 9.074219-6.738281 19.402343-16.203125 28.402343-26.953125-9.101562-27.222656-14.6875-56.636719-17.1875-86.488281-10.230468.800781-19.296874 5.742187-25.519531 13.15625-6.8125-8.121094-17.03125-13.285156-28.460937-13.285156-20.511719 0-37.136719 16.625-37.136719 37.136718 0 27.855469 29.332031 60.128906 51.292969 76.433594zm0 0" fill="#efd176"/><path d="m38.59375 355.617188c-1.921875 0-3.839844-.734376-5.304688-2.199219-2.929687-2.929688-2.929687-7.675781 0-10.605469l10.761719-10.757812c2.925781-2.929688 7.675781-2.929688 10.605469 0 2.925781 2.929687 2.929688 7.675781-.003906 10.605468l-10.757813 10.757813c-1.464843 1.464843-3.382812 2.199219-5.300781 2.199219zm0 0" fill="#a3defe"/><path d="m463.445312 252.390625c-1.917968 0-3.835937-.734375-5.300781-2.199219-2.929687-2.925781-2.929687-7.675781 0-10.605468l15.621094-15.621094c2.929687-2.929688 7.679687-2.929688 10.605469 0 2.929687 2.929687 2.929687 7.675781 0 10.605468l-15.621094 15.621094c-1.464844 1.464844-3.382812 2.199219-5.304688 2.199219zm0 0" fill="#7acefa"/><path d="m194.765625 164.597656c-4.144531 0-7.5 3.355469-7.5 7.5v10.164063c0 4.140625 3.355469 7.5 7.5 7.5 4.140625 0 7.5-3.359375 7.5-7.5v-10.164063c0-4.144531-3.359375-7.5-7.5-7.5zm122.46875 25.164063c4.144531 0 7.5-3.359375 7.5-7.5v-10.164063c0-4.144531-3.355469-7.5-7.5-7.5-4.140625 0-7.5 3.355469-7.5 7.5v10.164063c0 4.140625 3.359375 7.5 7.5 7.5zm187.265625 4.824219c-4.144531 0-7.5 3.355468-7.5 7.5v162.628906c0 33.378906-26.664062 60.628906-59.8125 61.613281v-37.03125c1.800781-1.53125 3.566406-3.121094 5.265625-4.820313 33.957031-33.957031 33.957031-89.207031 0-123.160156-1.691406-1.695312-3.457031-3.292968-5.265625-4.828125v-129.132812c25.882812.765625 48.523438 17.53125 56.699219 42.21875 1.304687 3.933593 5.546875 6.066406 9.480469 4.761719 3.929687-1.304688 6.0625-5.546876 4.761718-9.480469-10.410156-31.421875-39.660156-52.535157-72.785156-52.535157h-22.761719l-4.519531-14.800781c-1.601562-5.242187-4.898438-9.554687-9.175781-12.453125l-1.546875-17.167968c-3.492188-38.707032-35.4375-67.898438-74.304688-67.898438h-134.070312c-38.867188 0-70.808594 29.191406-74.300782 67.898438l-1.550781 17.167968c-4.273437 2.898438-7.570312 7.210938-9.171875 12.453125l-4.523437 14.800781h-22.757813c-42.269531-.003906-76.660156 34.386719-76.660156 76.65625v128.429688c0 4.140625 3.355469 7.5 7.5 7.5s7.5-3.359375 7.5-7.5v-128.429688c0-33.378906 26.664062-60.628906 59.8125-61.613281v298.964844c-33.148438-.984375-59.8125-28.234375-59.8125-61.613281v-11.109375c0-4.144531-3.355469-7.5-7.5-7.5s-7.5 3.355469-7.5 7.5v11.109375c0 42.269531 34.390625 76.660156 76.660156 76.660156h358.679688c42.269531 0 76.660156-34.390625 76.660156-76.660156v-162.628906c0-4.144532-3.355469-7.5-7.5-7.5zm-97.496094-67.269532c.007813 0 .015625.003906.023438.003906.007812 0 .019531-.003906.027344-.003906h15.132812v118.878906c-10.390625-5.617187-21.855469-9.035156-33.816406-10.050781v-108.828125zm-13.289062-25.417968 3.183594 10.417968h-52.097657l3.183594-10.417968c.796875-2.609376 2.773437-4.582032 5.25-5.402344 0-.003906.003906-.003906.003906-.003906.828125-.273438 1.707031-.417969 2.617188-.417969h29.984375c3.644531 0 6.808594 2.339843 7.875 5.824219zm-264.113282-32.652344c2.789063-30.925782 28.3125-54.246094 59.363282-54.246094h134.070312c31.050782 0 56.574219 23.320312 59.363282 54.246094l1.066406 11.828125h-25.839844l-.859375-9.515625c-1.585937-17.570313-16.085937-30.824219-33.730469-30.824219h-134.070312c-17.644532 0-32.144532 13.25-33.730469 30.824219l-.859375 9.515625h-25.839844zm213.316407 15.746094c-4.328125 2.898437-7.664063 7.238281-9.28125 12.523437l-4.519531 14.800781h-146.230469l-4.523438-14.800781c-1.613281-5.285156-4.953125-9.625-9.277343-12.523437l1.089843-12.085938c.882813-9.789062 8.960938-17.171875 18.792969-17.171875h134.066406c9.832032 0 17.910156 7.382813 18.792969 17.171875zm-224.632813 16.90625c1.066406-3.484376 4.230469-5.824219 7.875-5.824219h29.984375c.910157 0 1.789063.144531 2.613281.417969.003907 0 .003907.003906.007813.003906 2.472656.820312 4.453125 2.789062 5.25 5.402344l3.183594 10.417968h-52.097657zm5.34375 324.476562h-33.816406v-299.058594h15.15625.070312 18.589844v131.117188c-11.332031 8.101562-18.734375 21.359375-18.734375 36.320312 0 14.039063 6.480469 30.21875 18.734375 46.804688zm12.722656-92.703125c-11.691406-15.972656-16.460937-30.464844-16.460937-38.917969 0-16.34375 13.296875-29.636718 29.636719-29.636718 8.78125 0 17.0625 3.867187 22.714844 10.609374 1.425781 1.699219 3.527343 2.679688 5.746093 2.679688s4.320313-.980469 5.746094-2.679688c5.65625-6.742187 13.933594-10.609374 22.714844-10.609374 16.34375 0 29.636719 13.292968 29.636719 29.636718 0 25.367188-28.863282 56.007813-48.261719 70.410156-5.882813 4.367188-13.785157 4.371094-19.667969 0-13.019531-9.664062-22.976562-19.859374-30.382812-29.578124-.371094-.714844-.851563-1.359376-1.421876-1.914063zm237.019532 92.703125h-234.742188v-67.28125c6.496094 6.660156 13.535156 12.882812 20.585938 18.117188 5.613281 4.167968 12.191406 6.253906 18.773437 6.253906 6.578125 0 13.160157-2.085938 18.773438-6.253906 12.941406-9.609376 25.859375-22.527344 35.4375-35.441407 12.355469-16.660156 18.886719-32.917969 18.886719-47.015625 0-24.613281-20.023438-44.636718-44.636719-44.636718-10.496094 0-20.515625 3.664062-28.460938 10.25-7.945312-6.585938-17.964843-10.25-28.460937-10.25-3.757813 0-7.410156.472656-10.898438 1.351562v-124.152344h38.679688c.007812 0 .015625.003906.023437.003906.007813 0 .015625-.003906.023438-.003906h157.308593.074219 38.632813v108.828125c-20.429688 1.730469-39.410156 10.503907-54.082032 25.171875-33.953124 33.953125-33.953124 89.203125.003907 123.160156 15.070312 15.074219 34.339843 23.4375 54.078125 25.128907zm48.816406 0h-33.816406v-16.769531c11.699218-1 23.226562-4.351563 33.816406-10.054688zm9.660156-52.503906c-28.109375 28.105468-73.84375 28.105468-101.949218 0-28.105469-28.105469-28.105469-73.84375 0-101.949219 13.617187-13.617187 31.71875-21.113281 50.976562-21.113281 16.136719 0 31.449219 5.285156 44.003906 15 .0625.050781.125.097656.1875.148437 2.359375 1.839844 4.632813 3.816407 6.78125 5.964844 28.105469 28.105469 28.105469 73.839844 0 101.949219zm-154.777344-196.8125c-3.121093-2.722656-7.859374-2.398438-10.582031.726562-2.644531 3.039063-6.472656 4.78125-10.488281 4.78125-4.019531 0-7.84375-1.742187-10.488281-4.78125-2.726563-3.125-7.460938-3.449218-10.582031-.726562-3.125 2.71875-3.449219 7.457031-.730469 10.582031 5.5 6.308594 13.445312 9.925781 21.800781 9.925781s16.300781-3.617187 21.800781-9.925781c2.71875-3.125 2.394531-7.863281-.730469-10.582031zm0 0"/></svg>