<svg height="512pt" viewBox="0 -26 512 512" width="512pt" xmlns="http://www.w3.org/2000/svg"><path d="m504.433594 65.835938v329.613281c-.402344-29.8125-25.484375-54.894531-55.296875-55.296875-31.335938-.402344-56.898438 24.84375-56.898438 56.097656v-332.578125c0-33.257813 29.007813-59.785156 63.148438-55.699219 28.449219 3.449219 49.046875 29.171875 49.046875 57.863282zm0 0" fill="#ffe45c"/><path d="m448.335938 452.347656h-272.476563v-32.054687l-8.011719-16.03125 24.042969-48.082031 48.082031-8.015626 8.015625-24.039062 48.082031-32.058594 40.070313 8.015625 16.027344 16.027344h40.070312v80.140625c0-31.253906 25.5625-56.5 56.898438-56.097656 29.8125.398437 54.894531 25.484375 55.296875 55.296875v.800781c-.082032 31.011719-25.085938 56.097656-56.097656 56.097656zm0 0" fill="#95e8c8"/><path d="m392.238281 67.679688v152.261718l-24.042969-8.011718-8.015624-24.042969-40.066407 8.015625-56.097656 8.011718-40.070313-8.011718 8.011719-24.042969 8.015625-24.042969-24.042968-40.070312 8.015624-40.066406zm0 0" fill="#95e8c8"/><path d="m143.804688 268.027344-8.011719 40.070312-40.070313 24.039063-40.070312 8.015625-8.015625 32.054687-40.070313 16.027344v-320.554687h104.183594v40.066406l24.042969 16.03125v48.082031l-32.058594 24.042969v48.082031zm0 0" fill="#95e8c8"/><path d="m392.238281 219.941406v96.167969h-40.070312l-16.027344-16.027344-40.070313-8.011719-48.085937 32.054688-8.011719 24.039062-48.085937 8.015626-24.039063 48.082031 8.011719 16.03125v32.054687h-168.292969v-64.113281l40.070313-16.027344 8.015625-32.054687 40.070312-8.015625 40.070313-24.039063 8.011719-40.070312-40.070313-24.042969v-48.082031l32.058594-24.042969v-48.082031l-24.042969-16.03125v-40.066406h112.195312l-8.015624 40.066406 24.042968 40.070312-8.015625 24.042969-8.011719 24.042969 40.070313 8.011718 56.097656-8.011718 40.066407-8.015625 8.015624 24.042969zm0 0" fill="#96e8ff"/><path d="m55.652344 340.152344 8.011718-1.601563v-270.871093h-56.097656v320.554687l40.070313-16.027344zm0 0" fill="#06ccab"/><path d="m55.652344 340.152344-8.015625 32.054687-40.070313 16.027344v64.113281h56.097656v-113.796875zm0 0" fill="#19cffc"/><path d="m440.320312 55.65625c0-18.925781 9.410157-35.648438 23.796876-45.8125-2.820313-.839844-5.71875-1.503906-8.730469-1.871094-34.140625-4.085937-63.148438 22.441406-63.148438 55.699219v332.578125c0-28.257812 20.917969-51.53125 48.082031-55.453125zm0 0" fill="#ffb13b"/><path d="m479.945312 252h-15.136718v-188.328125c0-6.90625-2.375-11.382813-7.476563-14.082031-4.339843-2.296875-9.003906-2.390625-9.050781-2.390625l.054688-15.136719c12.703124 0 31.609374 8.417969 31.609374 31.609375zm0 0" fill="#fff"/><path d="m47.191406 195.902344h-15.136718v-103.738282h39.625v15.136719h-24.488282zm0 0" fill="#fff"/><path d="m32.054688 243.984375h15.136718v16.027344h-15.136718zm0 0" fill="#fff"/><path d="m232.402344 412.277344h15.136718v16.027344h-15.136718zm0 0" fill="#fff"/><g fill="#231f20"><path d="m512 203.914062v-138.078124c0-33.425782-23.945312-61.527344-55.714844-65.375-18.261718-2.1875-36.554687 3.496093-50.1875 15.597656-12.726562 11.292968-20.375 27.1875-21.324218 44.050781h-224.941407v15.136719h54.882813l-6.777344 33.886718 23.753906 39.59375-17.636718 52.914063 49.746093 9.949219 57.382813-8.199219 33.929687-6.773437 7.101563 21.292968 22.453125 7.488282v83.144531h-29.367188l-15.429687-15.433594-45.390625-9.078125-52.851563 35.234375-7.394531 22.183594-47.390625 7.898437-27.457031 54.914063 9.707031 19.410156 13.535156-6.765625-6.320312-12.644531 20.625-41.25 48.777344-8.132813 8.632812-25.898437 43.316406-28.878907 34.75 6.949219 16.625 16.625h35.632813v72.574219h15.136719c0-13.070312 5.125-25.332031 14.429687-34.515625 9.171875-9.054687 21.28125-14.019531 34.160156-14.019531.214844 0 .429688 0 .640625.003906 25.570313.34375 47.460938 22.21875 47.828125 47.78125v.730469c-.066406 26.769531-21.839843 48.546875-48.527343 48.546875h-433.199219v-51.417969l38.90625-15.5625 7.789062-31.164063 36.660157-7.332031 44.0625-26.4375 9.71875-48.582031-40.96875-24.582031v-40.015625l32.054687-24.042969v-55.914063l-24.039063-16.03125v-28.449218h16.472657v-15.136719h-135.792969v399.804687h448.335938c35.011718 0 63.574218-28.550781 63.664062-63.664062v-168.292969h-15.136719v127.496094c-1.171875-1.382813-2.398437-2.734375-3.699219-4.03125-11.921874-11.925781-27.523437-18.617187-43.929687-18.835937-.28125-.003907-.5625-.003907-.84375-.003907-16.882813 0-32.761719 6.507813-44.789063 18.382813-1.335937 1.316406-2.59375 2.691406-3.796874 4.105468v-291.398437c0-13.847656 5.957031-27.078125 16.339843-36.292969 10.554688-9.363281 24.175781-13.585937 38.332031-11.890625 24.164063 2.925781 42.386719 24.570313 42.386719 50.347657v138.078124zm-407.820312-128.667968v36.550781l24.042968 16.03125v40.246094l-32.054687 24.042969v56.152343l39.167969 23.503907-6.3125 31.554687-36.074219 21.644531-43.480469 8.695313-8.234375 32.949219-26.097656 10.441406v-301.8125zm270 130.699218-8.933594-26.789062-46.414063 9.28125-54.605469 7.800781-30.390624-6.078125 14.417968-43.25-24.328125-40.546875 6.222657-31.117187h154.519531v134.195312zm0 0"/><path d="m464.808594 268.027344h15.136718v16.027344h-15.136718zm0 0"/><path d="m32.054688 211.929688h15.136718v16.027343h-15.136718zm0 0"/><path d="m200.347656 412.277344h15.136719v16.027344h-15.136719zm0 0"/><path d="m264.460938 412.277344h15.136718v16.027344h-15.136718zm0 0"/><path d="m328.125 107.300781h24.488281v16.476563h15.136719v-31.613282h-39.625zm0 0"/></g></svg>