<svg id="Capa_1" enable-background="new 0 0 512 512" height="512" viewBox="0 0 512 512" width="512" xmlns="http://www.w3.org/2000/svg" xmlns:xlink="http://www.w3.org/1999/xlink"><linearGradient id="SVGID_1_" gradientUnits="userSpaceOnUse" x1="0" x2="512" y1="256" y2="256"><stop offset="0" stop-color="#00f2fe"/><stop offset=".0208" stop-color="#03effe"/><stop offset=".2931" stop-color="#24d2fe"/><stop offset=".5538" stop-color="#3cbdfe"/><stop offset=".7956" stop-color="#4ab0fe"/><stop offset="1" stop-color="#4facfe"/></linearGradient><path d="m472 332v-212c0-22.056-17.944-40-40-40h-26v20c0 11.046-8.954 20-20 20s-20-8.954-20-20v-20h-91v20c0 11.046-8.954 20-20 20s-20-8.954-20-20v-20h-90v20c0 11.046-8.954 20-20 20s-20-8.954-20-20v-20h-25c-22.056 0-40 17.944-40 40v312c0 22.056 17.944 40 40 40h352c22.056 0 40-17.944 40-40 0-11.046 8.954-20 20-20s20 8.954 20 20c0 44.112-35.888 80-80 80h-352c-44.112 0-80-35.888-80-80v-312c0-44.112 35.888-80 80-80h25v-20c0-11.046 8.954-20 20-20s20 8.954 20 20v20h90v-20c0-11.046 8.954-20 20-20s20 8.954 20 20v20h91v-20c0-11.046 8.954-20 20-20s20 8.954 20 20v20h26c44.112 0 80 35.888 80 80v212c0 11.046-8.954 20-20 20s-20-8.954-20-20zm-243.722 63h.004c4.039 0 7.858-1.841 10.374-5l58.934-74h30.41c11.287 0 23-8.724 23-20.011s-11.713-19.989-23-19.989h-30.09l-59.257-74.014c-2.515-3.142-6.321-4.971-10.345-4.973-9.776-.006-16.198 10.208-11.956 19.016l28.881 59.971h-48.628l-17.644-19.348c-1.514-1.66-3.653-2.61-5.9-2.619-4.447-.018-8.062 3.582-8.062 8.029v66.909c0 4.434 3.595 8.029 8.029 8.029h.948c2.214 0 4.33-.914 5.847-2.526l17.386-18.474h47.956l-28.839 59.992c-4.233 8.805 2.184 19.008 11.952 19.008z" fill="url(#SVGID_1_)"/></svg>