<svg height="512pt" viewBox="-61 0 511 512" width="512pt" xmlns="http://www.w3.org/2000/svg"><path d="m200.726562 259.035156c33.285157 0 60.363282-27.078125 60.363282-60.363281s-27.078125-60.363281-60.363282-60.363281c-33.285156 0-60.363281 27.078125-60.363281 60.363281s27.078125 60.363281 60.363281 60.363281zm0-105.726562c25.011719 0 45.363282 20.347656 45.363282 45.363281s-20.351563 45.363281-45.363282 45.363281c-25.015624 0-45.363281-20.347656-45.363281-45.363281s20.351563-45.363281 45.363281-45.363281zm0 0"/><path d="m381.472656 393.425781c4.140625 0 7.5-3.359375 7.5-7.5v-273.652343c0-33.367188-27.148437-60.511719-60.515625-60.511719h-72.261719c-8.265624-8.300781-20.023437-8.117188-20.023437-8.117188v-8.199219c0-19.542968-15.902344-35.445312-35.445313-35.445312-19.546874 0-35.445312 15.902344-35.445312 35.445312v8.199219s-11.085938-.035156-20.023438 8.117188h-72.265624c-33.363282 0-60.511719 27.148437-60.511719 60.515625v227.761718c-7.386719 7.269532-11.980469 17.371094-11.980469 28.527344v50.070313c0 13.105469 4.503906 25.171875 12.027344 34.761719 1.015625 32.484374 27.738281 58.601562 60.464844 58.601562h255.46875c33.363281 0 60.511718-27.144531 60.511718-60.511719v-34.21875c0-4.140625-3.359375-7.5-7.5-7.5-4.144531 0-7.5 3.359375-7.5 7.5v34.21875c0 25.09375-20.417968 45.511719-45.511718 45.511719h-255.46875c-19.023438 0-35.351563-11.738281-42.140626-28.351562 7.804688 4.085937 16.667969 6.410156 26.070313 6.410156h238.402344c31.265625 0 56.703125-25.4375 56.703125-56.703125v-295.660157c0-18.742187-15.246094-33.992187-33.992188-33.992187h-54.011718s-.105469-20.617187-.304688-21.941406h64.738281c25.097657 0 45.515625 20.417969 45.515625 45.515625v273.648437c0 4.140625 3.355469 7.5 7.5 7.5zm-201.191406-357.980469c0-11.273437 9.171875-20.445312 20.445312-20.445312 11.273438 0 20.445313 9.171875 20.445313 20.445312v8.199219h-40.890625zm-27.851562 35.378907c0-6.714844 5.460937-12.179688 12.175781-12.179688h72.242187c6.714844 0 12.175782 5.464844 12.175782 12.179688v24.960937c0 6.714844-5.460938 12.175782-12.175782 12.175782h-72.242187c-6.714844 0-12.175781-5.460938-12.175781-12.175782zm-95.507813 389.234375c-22.839844 0-41.421875-18.582032-41.421875-41.421875v-50.070313c0-13.804687 11.234375-25.039062 25.039062-25.039062h173.605469c13.808594 0 25.039063 11.230468 25.039063 25.039062v50.070313c0 16.355469 6.960937 31.105469 18.0625 41.421875zm196.058594-101.230469c-1.421875-5.675781-4.0625-10.871094-7.625-15.300781h42.96875c4.21875 0 7.648437 3.433594 7.648437 7.648437 0 4.21875-3.433594 7.652344-7.648437 7.652344zm1.203125 38.84375h34.140625c4.21875 0 7.648437 3.433594 7.648437 7.652344 0 4.214843-3.433594 7.648437-7.648437 7.648437h-34.140625zm82.84375-274.976563v295.660157c0 22.996093-18.707032 41.703125-41.703125 41.703125-19.496094 0-35.851563-13.730469-40.070313-32.085938h33.070313c12.488281 0 22.648437-10.160156 22.648437-22.648437s-10.160156-22.648438-22.648437-22.648438h-34.140625v-8.847656h34.140625c12.488281 0 22.648437-10.160156 22.648437-22.648437 0-12.488282-10.160156-22.652344-22.648437-22.652344h-223.902344v-128.304688c0-4.144531-3.355469-7.5-7.5-7.5-4.140625 0-7.5 3.355469-7.5 7.5v128.304688s-14.898437-.777344-21.941406 2.199218v-218.453124c0-25.09375 20.417969-45.511719 45.515625-45.511719h64.738281c-.199219 1.324219-.304687 21.941406-.304687 21.941406h-54.015626c-18.742187 0-33.988281 15.25-33.988281 33.992187v46.074219c0 4.140625 3.355469 7.5 7.5 7.5 4.140625 0 7.5-3.359375 7.5-7.5v-46.074219c0-10.472656 8.519531-18.992187 18.988281-18.992187h55.195313c3.398437 11.132813 13.765625 19.257813 25.996094 19.257813h72.242187c12.230469 0 22.597656-8.125 25.996094-19.257813h55.195312c10.46875 0 18.988282 8.523437 18.988282 18.992187zm0 0"/><path d="m113.128906 274.382812c-12.488281 0-22.648437 10.160157-22.648437 22.648438s10.160156 22.652344 22.648437 22.652344h175.195313c12.488281 0 22.648437-10.164063 22.648437-22.652344s-10.160156-22.648438-22.648437-22.648438zm182.84375 22.648438c0 4.21875-3.433594 7.652344-7.648437 7.652344h-175.195313c-4.21875 0-7.648437-3.433594-7.648437-7.652344s3.429687-7.648438 7.648437-7.648438h175.195313c4.21875 0 7.648437 3.429688 7.648437 7.648438zm0 0"/><path d="m197.128906 221.574219c-1.929687 0-3.855468-.738281-5.320312-2.210938l-16.773438-16.882812c-2.917968-2.941407-2.902344-7.691407.039063-10.609375 2.9375-2.917969 7.6875-2.902344 10.605469.035156l11.570312 11.648438 18.644531-17.929688c2.988281-2.867188 7.734375-2.777344 10.605469.210938 2.871094 2.984374 2.777344 7.734374-.207031 10.605468l-23.96875 23.039063c-1.453125 1.398437-3.324219 2.09375-5.195313 2.09375zm0 0"/></svg>