<svg id="Capa_1" enable-background="new 0 0 512 512" height="512" viewBox="0 0 512 512" width="512" xmlns="http://www.w3.org/2000/svg"><g><g><circle cx="351.968" cy="474.195" r="10.102"/><circle cx="129.732" cy="474.195" r="10.102"/><path d="m99.422 315.496c4.142 0 7.5-3.358 7.5-7.5v-172.616c0-17.92 14.58-32.5 32.5-32.5h202.85c17.92 0 32.5 14.58 32.5 32.5v31.79c0 4.142 3.358 7.5 7.5 7.5s7.5-3.358 7.5-7.5v-31.79c0-26.191-21.309-47.5-47.5-47.5h-31.292v-38.534h10.683c4.142 0 7.5-3.358 7.5-7.5v-34.346c0-4.142-3.358-7.5-7.5-7.5h-161.626c-4.142 0-7.5 3.358-7.5 7.5v34.346c0 4.142 3.358 7.5 7.5 7.5h10.683v38.534h-31.297c-26.191 0-47.5 21.309-47.5 47.5v172.616c-.001 4.142 3.357 7.5 7.499 7.5zm97.562-227.616h-11.264v-38.534h11.265v38.534zm72.732 0h-57.731v-38.534h57.731zm26.264 0h-11.264v-38.534h11.264zm-128.443-53.534v-19.346h146.626v19.346z"/><path d="m156.149 129.301h-.305c-12.407 0-22.5 10.093-22.5 22.5v224.561c0 12.407 10.093 22.5 22.5 22.5h.305c12.407 0 22.5-10.093 22.5-22.5v-224.561c0-12.407-10.093-22.5-22.5-22.5zm7.5 247.061c0 4.136-3.364 7.5-7.5 7.5h-.305c-4.136 0-7.5-3.364-7.5-7.5v-224.561c0-4.136 3.364-7.5 7.5-7.5h.305c4.136 0 7.5 3.364 7.5 7.5z"/><path d="m212.413 129.301c-12.407 0-22.5 10.093-22.5 22.5v224.561c0 12.407 10.093 22.5 22.5 22.5h.305c12.407 0 22.5-10.093 22.5-22.5v-224.561c0-12.407-10.093-22.5-22.5-22.5zm7.805 22.5v224.561c0 4.136-3.364 7.5-7.5 7.5h-.305c-4.136 0-7.5-3.364-7.5-7.5v-224.561c0-4.136 3.364-7.5 7.5-7.5h.305c4.136 0 7.5 3.364 7.5 7.5z"/><path d="m268.982 129.301c-12.407 0-22.5 10.093-22.5 22.5v224.561c0 12.407 10.093 22.5 22.5 22.5h.305c12.407 0 22.5-10.093 22.5-22.5v-224.561c0-12.407-10.093-22.5-22.5-22.5zm7.805 22.5v224.561c0 4.136-3.364 7.5-7.5 7.5h-.305c-4.136 0-7.5-3.364-7.5-7.5v-224.561c0-4.136 3.364-7.5 7.5-7.5h.305c4.136 0 7.5 3.364 7.5 7.5z"/><path d="m325.856 129.301h-.305c-12.407 0-22.5 10.093-22.5 22.5v224.561c0 12.407 10.093 22.5 22.5 22.5h.305c12.407 0 22.5-10.093 22.5-22.5v-224.561c0-12.407-10.093-22.5-22.5-22.5zm7.5 247.061c0 4.136-3.364 7.5-7.5 7.5h-.305c-4.136 0-7.5-3.364-7.5-7.5v-224.561c0-4.136 3.364-7.5 7.5-7.5h.305c4.136 0 7.5 3.364 7.5 7.5z"/><path d="m401.135 225.087-11.363-3.788v-19.228c0-4.142-3.358-7.5-7.5-7.5s-7.5 3.358-7.5 7.5v204.014h-22.805c-29.619 0-55.993 19.635-64.89 47.475h-92.455c-8.897-27.84-35.272-47.475-64.891-47.475h-22.81v-63.014c0-4.142-3.358-7.5-7.5-7.5s-7.5 3.358-7.5 7.5v77.989c0 10.357 3.283 20.16 9.35 28.292-5.812 6.649-9.345 15.339-9.345 24.843 0 20.846 16.959 37.805 37.805 37.805s37.805-16.959 37.805-37.805c0-1.915-.146-3.796-.422-5.635h147.47c-.276 1.839-.422 3.72-.422 5.635 0 20.846 16.959 37.805 37.805 37.805s37.805-16.959 37.805-37.805c0-9.507-3.535-18.198-9.35-24.849 6.066-8.126 9.349-17.927 9.349-28.287v-87.932l11.362-3.788c11.331-3.777 18.943-14.338 18.943-26.282v-51.689c.002-11.943-7.611-22.504-18.941-26.281zm-271.403 271.913c-12.575 0-22.805-10.23-22.805-22.805s10.23-22.805 22.805-22.805 22.805 10.23 22.805 22.805-10.23 22.805-22.805 22.805zm0-60.61c-5.935 0-11.553 1.379-16.556 3.826-4.053-5.519-6.248-12.14-6.253-19.131h22.809c21.447 0 40.707 13.206 48.904 32.475h-17.252c-6.756-10.327-18.417-17.17-31.652-17.17zm173.332 17.17c8.196-19.269 27.457-32.475 48.904-32.475h22.804c-.005 6.994-2.201 13.614-6.254 19.128-5.002-2.446-10.617-3.823-16.55-3.823-13.235 0-24.896 6.842-31.652 17.17zm48.904 43.44c-12.575 0-22.805-10.23-22.805-22.805s10.23-22.805 22.805-22.805 22.805 10.23 22.805 22.805-10.231 22.805-22.805 22.805zm53.11-193.942c0 5.477-3.491 10.319-8.687 12.051l-6.619 2.206v-80.205l6.619 2.206c5.195 1.732 8.686 6.575 8.686 12.051v51.691z"/></g></g></svg>