<?xml version="1.0" encoding="iso-8859-1"?>
<!-- Generator: Adobe Illustrator 19.0.0, SVG Export Plug-In . SVG Version: 6.00 Build 0)  -->
<svg version="1.1" id="Capa_1" xmlns="http://www.w3.org/2000/svg" xmlns:xlink="http://www.w3.org/1999/xlink" x="0px" y="0px"
	 viewBox="0 0 512 512" style="enable-background:new 0 0 512 512;" xml:space="preserve">
<g>
	<path style="fill:#657FC9;" d="M220.991,501.99h-10c-8.284,0-14.999-6.716-14.999-14.999v-14.999h39.998v14.999
		C235.99,495.274,229.275,501.99,220.991,501.99z"/>
	<path style="fill:#657FC9;" d="M371.652,501.99h-10c-8.284,0-14.999-6.716-14.999-14.999v-14.999h39.998v14.999
		C386.651,495.274,379.935,501.99,371.652,501.99z"/>
</g>
<path style="fill:#FEB756;" d="M191.961,106.006h192.055c35.328,0,63.966,28.639,63.966,63.966v238.053
	c0,35.328-28.639,63.966-63.966,63.966H191.961c-35.328,0-63.966-28.639-63.966-63.966V169.972
	C127.995,134.644,156.634,106.006,191.961,106.006z"/>
<path style="fill:#657FC9;" d="M346.653,10.01H229.324c-7.364,0-13.332,5.97-13.332,13.332v22.666h143.994V23.343
	C359.985,15.979,354.015,10.01,346.653,10.01z"/>
<path style="fill:#F25353;" d="M318.283,232.537c-11.933,0-22.693,5.204-30.295,13.544c-7.602-8.34-18.362-13.544-30.295-13.544
	c-23.032,0-41.702,19.384-41.702,43.295c0,40.307,71.997,79.626,71.997,79.626s71.997-39.319,71.997-79.626
	C359.985,251.921,341.314,232.537,318.283,232.537z"/>
<path d="M245.621,338.471c18.523,15.301,36.804,25.345,37.574,25.765c1.494,0.815,3.143,1.224,4.793,1.224s3.299-0.408,4.793-1.224
	c0.77-0.42,19.051-10.464,37.574-25.765c26.296-21.722,39.629-42.796,39.629-62.637c0-29.388-23.193-53.296-51.702-53.296
	c-10.911,0-21.54,3.61-30.295,10.12c-8.755-6.51-19.384-10.12-30.295-10.12c-28.509,0-51.702,23.908-51.702,53.296
	C205.992,295.674,219.325,316.749,245.621,338.471z M257.693,242.537c8.728,0,16.861,3.651,22.904,10.281
	c1.895,2.079,4.578,3.264,7.391,3.264s5.496-1.185,7.391-3.264c6.043-6.63,14.177-10.281,22.904-10.281
	c17.48,0,31.703,14.937,31.703,33.297c0,25.961-41.062,55.686-61.997,68.109c-20.939-12.427-61.997-42.15-61.997-68.109
	C225.991,257.473,240.213,242.537,257.693,242.537z"/>
<path d="M339.986,163.534h29.485c13.332,0,24.178,10.847,24.178,24.178v17.29c0,5.522,4.477,10,10,10c5.523,0,10-4.478,10-10v-17.29
	c0-24.359-19.818-44.177-44.177-44.177h-29.485c-5.523,0-10,4.478-10,10S334.463,163.534,339.986,163.534z"/>
<path d="M294.988,163.534c2.63,0,5.21-1.07,7.07-2.931c1.86-1.859,2.93-4.439,2.93-7.069c0-2.631-1.07-5.211-2.93-7.07
	c-1.86-1.86-4.44-2.93-7.07-2.93c-2.64,0-5.21,1.069-7.07,2.93c-1.86,1.859-2.93,4.439-2.93,7.07c0,2.63,1.07,5.21,2.93,7.069
	C289.778,162.464,292.358,163.534,294.988,163.534z"/>
<path d="M235.99,434.462c5.523,0,10-4.478,10-10c0-5.522-4.477-10-10-10h-29.485c-13.332,0-24.178-10.847-24.178-24.178v-17.29
	c0-5.522-4.477-10-10-10s-10,4.478-10,10v17.29c0,24.359,19.818,44.177,44.177,44.177L235.99,434.462L235.99,434.462z"/>
<path d="M280.988,414.463c-2.63,0-5.21,1.07-7.07,2.93c-1.86,1.86-2.93,4.44-2.93,7.07c0,2.63,1.07,5.21,2.93,7.07
	c1.86,1.859,4.44,2.93,7.07,2.93c2.63,0,5.21-1.07,7.07-2.93c1.86-1.86,2.93-4.44,2.93-7.07c0-2.63-1.07-5.21-2.93-7.07
	C286.198,415.533,283.618,414.463,280.988,414.463z"/>
<path d="M502,491.99H396.147c0.329-1.616,0.503-3.288,0.503-5v-6.102c34.784-6.015,61.331-36.389,61.331-72.864V169.972
	c0-40.784-33.181-73.966-73.966-73.966h-35.029V56.007h11c5.523,0,10-4.478,10-10V23.343c0-12.865-10.467-23.332-23.332-23.332
	H229.324c-12.865,0-23.332,10.467-23.332,23.332v22.666c0,5.522,4.477,10,10,10h11v39.998h-35.03
	c-40.785,0-73.966,33.182-73.966,73.966V246H63.997c-5.523,0-10,4.478-10,10c0,5.522,4.477,10,10,10h53.998v44.498H10
	c-5.523,0-10,4.478-10,10c0,5.522,4.477,10,10,10h107.996v77.528c0,38.773,29.996,70.652,67.997,73.704v5.262
	c0,1.712,0.174,3.384,0.503,5H10c-5.523,0-10,4.478-10,10c0,5.522,4.477,10,10,10H502c5.523,0,10-4.478,10-10
	C512,496.468,507.523,491.99,502,491.99z M225.991,23.343c0-1.838,1.496-3.333,3.333-3.333h117.328c1.838,0,3.333,1.495,3.333,3.333
	v12.666H225.991V23.343z M246.99,56.008h81.997v39.998H246.99V56.008z M137.994,408.025V169.972
	c0-29.758,24.209-53.967,53.967-53.967h192.055c29.757,0,53.967,24.209,53.967,53.967v238.053c0,29.758-24.209,53.967-53.967,53.967
	h-37.363H235.99h-39.998h-4.031C162.203,461.992,137.994,437.783,137.994,408.025z M245.99,481.991h90.663v5
	c0,1.712,0.174,3.384,0.503,5h-91.669c0.329-1.616,0.503-3.288,0.503-5L245.99,481.991L245.99,481.991z M210.991,491.99
	c-2.757,0-5-2.243-5-5v-5h19.999v5c0,2.757-2.243,5-5,5H210.991z M361.652,491.99c-2.757,0-5-2.243-5-5v-5h19.999v5
	c0,2.757-2.243,5-5,5H361.652z"/>
<g>
</g>
<g>
</g>
<g>
</g>
<g>
</g>
<g>
</g>
<g>
</g>
<g>
</g>
<g>
</g>
<g>
</g>
<g>
</g>
<g>
</g>
<g>
</g>
<g>
</g>
<g>
</g>
<g>
</g>
</svg>
