<svg id="Layer_35" enable-background="new 0 0 64 64" height="512" viewBox="0 0 64 64" width="512" xmlns="http://www.w3.org/2000/svg"><path d="m8 16h10 28 10v40c0 3.31-2.69 6-6 6h-36c-3.31 0-6-2.69-6-6z" fill="#d3a06c"/><circle cx="48" cy="54" fill="#e6e9ed" r="4"/><path d="m12 56v-4c0-1.1.9-2 2-2h16c1.1 0 2 .9 2 2v4c0 1.1-.9 2-2 2h-16c-1.1 0-2-.9-2-2z" fill="#5cd6b3"/><path d="m46 27.46v2.54c0 3.86-1.57 7.36-4.1 9.9-2.54 2.53-6.04 4.1-9.9 4.1-7.73 0-14-6.27-14-14v-2.54c.59.34 1.27.54 2 .54s1.41-.2 2-.54v2.54c0 2.76 1.12 5.26 2.93 7.07s4.31 2.93 7.07 2.93c5.52 0 10-4.48 10-10v-2.54c.59.34 1.27.54 2 .54s1.41-.2 2-.54z" fill="#fcd770"/><path d="m18 27.46c-1.2-.69-2-1.98-2-3.46 0-2.21 1.79-4 4-4s4 1.79 4 4c0 1.48-.8 2.77-2 3.46-.59.34-1.27.54-2 .54s-1.41-.2-2-.54z" fill="#ffc729"/><path d="m44 20c2.21 0 4 1.79 4 4 0 1.48-.8 2.77-2 3.46-.59.34-1.27.54-2 .54s-1.41-.2-2-.54c-1.2-.69-2-1.98-2-3.46 0-2.21 1.79-4 4-4z" fill="#ffc729"/><path d="m18 9-8 5.6v-12.6z" fill="#d3a06c"/><path d="m54 2v12.6l-8-5.6z" fill="#d3a06c"/><path d="m18 9-8-7h44l-8 7v7h-28z" fill="#ecc19c"/><path d="m18 9v7h-10l2-1.4z" fill="#cf9e76"/><path d="m54 14.6 2 1.4h-10v-7z" fill="#cf9e76"/><path d="m55 14.079v-13.079h-46v13.079l-2 1.4v40.521c0 3.859 3.141 7 7 7h36c3.859 0 7-3.141 7-7v-40.521zm-38 .921h-5.828l5.828-4.079zm-4.338-12h38.677l-6.339 5.546v6.454h-26v-6.454zm34.338 7.921 5.828 4.079h-5.828zm.619-2.008 5.381-4.709v8.476zm-36.619-4.709 5.381 4.709-5.381 3.766zm39 56.796h-36c-2.757 0-5-2.243-5-5v-39h46v39c0 2.757-2.243 5-5 5z"/><path d="m47 27.974c1.207-.914 2-2.348 2-3.974 0-2.757-2.243-5-5-5s-5 2.243-5 5c0 1.627.793 3.061 2 3.974v2.026c0 4.963-4.037 9-9 9s-9-4.037-9-9v-2.026c1.207-.914 2-2.348 2-3.974 0-2.757-2.243-5-5-5s-5 2.243-5 5c0 1.627.793 3.061 2 3.974v2.026c0 8.271 6.729 15 15 15s15-6.729 15-15zm-3-6.974c1.654 0 3 1.346 3 3s-1.346 3-3 3-3-1.346-3-3 1.346-3 3-3zm-24 0c1.654 0 3 1.346 3 3s-1.346 3-3 3-3-1.346-3-3 1.346-3 3-3zm12 22c-7.168 0-13-5.832-13-13v-1.101c.323.066.658.101 1 .101s.677-.035 1-.101v1.101c0 6.065 4.935 11 11 11s11-4.935 11-11v-1.101c.323.066.658.101 1 .101s.677-.035 1-.101v1.101c0 7.168-5.832 13-13 13z"/><path d="m30 49h-16c-1.654 0-3 1.346-3 3v4c0 1.654 1.346 3 3 3h16c1.654 0 3-1.346 3-3v-4c0-1.654-1.346-3-3-3zm1 7c0 .552-.448 1-1 1h-16c-.552 0-1-.448-1-1v-4c0-.552.448-1 1-1h16c.552 0 1 .448 1 1z"/><path d="m15 53h10v2h-10z"/><path d="m27 53h2v2h-2z"/><path d="m48 49c-2.757 0-5 2.243-5 5s2.243 5 5 5 5-2.243 5-5-2.243-5-5-5zm0 8c-1.654 0-3-1.346-3-3s1.346-3 3-3 3 1.346 3 3-1.346 3-3 3z"/><path d="m47 53h2v2h-2z"/><path d="m51 42h2v2h-2z"/><path d="m51 46h2v2h-2z"/><path d="m51 34h2v2h-2z"/><path d="m51 38h2v2h-2z"/><path d="m11 23h2v2h-2z"/><path d="m11 31h2v2h-2z"/><path d="m11 19h2v2h-2z"/><path d="m11 27h2v2h-2z"/><path d="m19 23h2v2h-2z"/><path d="m43 23h2v2h-2z"/><path d="m26 5h2v2h-2z"/><path d="m22 5h2v2h-2z"/><path d="m18 5h2v2h-2z"/><path d="m41 11h2v2h-2z"/><path d="m37 11h2v2h-2z"/><path d="m33 11h2v2h-2z"/></svg>