<svg id="Layer_35" enable-background="new 0 0 64 64" height="512" viewBox="0 0 64 64" width="512" xmlns="http://www.w3.org/2000/svg" xmlns:xlink="http://www.w3.org/1999/xlink"><linearGradient id="SVGID_1_" gradientUnits="userSpaceOnUse" x1="32" x2="32" y1="63" y2="1"><stop offset="0" stop-color="#9f2fff"/><stop offset="1" stop-color="#0bb1d3"/></linearGradient><path d="m55 1h-46v13.079l-2 1.4v40.521c0 3.859 3.141 7 7 7h36c3.859 0 7-3.141 7-7v-40.521l-2-1.4zm-38 14h-5.828l5.828-4.079zm-4.338-12h38.677l-6.339 5.546v6.454h-26v-6.454zm34.338 7.921 5.828 4.079h-5.828zm.619-2.008 5.381-4.709v8.476zm-36.619-4.709 5.381 4.709-5.381 3.766zm39 56.796h-36c-2.757 0-5-2.243-5-5v-39h46v39c0 2.757-2.243 5-5 5zm-3-33.026c1.207-.914 2-2.348 2-3.974 0-2.757-2.243-5-5-5s-5 2.243-5 5c0 1.627.793 3.061 2 3.974v2.026c0 4.963-4.037 9-9 9s-9-4.037-9-9v-2.026c1.207-.914 2-2.348 2-3.974 0-2.757-2.243-5-5-5s-5 2.243-5 5c0 1.627.793 3.061 2 3.974v2.026c0 8.271 6.729 15 15 15s15-6.729 15-15zm-3-6.974c1.654 0 3 1.346 3 3s-1.346 3-3 3-3-1.346-3-3 1.346-3 3-3zm-24 0c1.654 0 3 1.346 3 3s-1.346 3-3 3-3-1.346-3-3 1.346-3 3-3zm12 22c-7.168 0-13-5.832-13-13v-1.101c.323.066.658.101 1 .101s.677-.035 1-.101v1.101c0 6.065 4.935 11 11 11s11-4.935 11-11v-1.101c.323.066.658.101 1 .101s.677-.035 1-.101v1.101c0 7.168-5.832 13-13 13zm-2 6h-16c-1.654 0-3 1.346-3 3v4c0 1.654 1.346 3 3 3h16c1.654 0 3-1.346 3-3v-4c0-1.654-1.346-3-3-3zm1 7c0 .552-.448 1-1 1h-16c-.552 0-1-.448-1-1v-4c0-.552.448-1 1-1h16c.552 0 1 .448 1 1zm-16-3h10v2h-10zm12 0h2v2h-2zm21-4c-2.757 0-5 2.243-5 5s2.243 5 5 5 5-2.243 5-5-2.243-5-5-5zm0 8c-1.654 0-3-1.346-3-3s1.346-3 3-3 3 1.346 3 3-1.346 3-3 3zm-1-4h2v2h-2zm4-19h2v2h-2zm0 12h2v2h-2zm0-4h2v2h-2zm0-4h2v2h-2zm-38-17h-2v-2h2zm0 8h-2v-2h2zm0-4h-2v-2h2zm0 8h-2v-2h2zm8-8h-2v-2h2zm24 0h-2v-2h2zm-21-18h-2v-2h2zm4 0h-2v-2h2zm-8 0h-2v-2h2zm23 6h-2v-2h2zm-4 0h-2v-2h2zm-4 0h-2v-2h2z" fill="url(#SVGID_1_)"/></svg>