<svg id="Layer_1" enable-background="new 0 0 512 512" height="512" viewBox="0 0 512 512" width="512" xmlns="http://www.w3.org/2000/svg"><g clip-rule="evenodd" fill-rule="evenodd"><path d="m21.018 178.045c-7.425 0-13.462 6.06-13.462 13.45v88.064c0 7.391 6.036 13.45 13.462 13.45h24.174l18.534-51.338-18.109-63.627h-24.599z" fill="#838383"/><path d="m302.464 120.053h-224.34-9.012c-12.81-.028-23.267 10.477-23.324 23.304l-.17 34.688-.425 93.784v21.181 48.874l216.83 18.236 224.227-18.122c0-59.578 0-83.392 0-100.042 0-12.827-10.514-23.304-23.324-23.304h-60.931c-15.275 0-18.364 1.076-24.968-13.309l-26.781-58.275c-5.328-11.638-14.397-27.014-40.98-27.014h-6.802z" fill="#ffd659"/><path d="m86.427 341.883h-41.235-7.397c-10.004 0-18.194 8.183-18.194 18.179s8.19 18.179 18.194 18.179h45.146c-.992-4.191-1.502-6.654-1.502-13.054 0-6.399 1.757-16.196 4.988-23.304z" fill="#acacac"/><path d="m271.346 341.883h-39.336-60.138c3.202 7.107 4.96 16.905 4.96 23.304 0 6.4-.51 8.863-1.502 13.054h157.656c-.992-4.191-1.502-6.654-1.502-13.054 0-6.399 1.785-16.197 4.988-23.304z" fill="#acacac"/><path d="m486.249 341.997-64.332-.113c3.202 7.107 4.988 16.905 4.988 23.304 0 6.4-.538 8.863-1.53 13.054l60.874.142c10.004 0 18.194-8.183 18.194-18.207 0-9.997-8.19-18.152-18.194-18.18z" fill="#acacac"/><path d="m129.136 307.932c-23.494 0-43.729 13.96-52.713 33.951-3.202 7.107-4.988 15.008-4.988 23.304 0 4.502.51 8.863 1.502 13.054 5.951 25.343 28.85 44.202 56.198 44.202s50.247-18.859 56.198-44.202c.992-4.191 1.502-8.552 1.502-13.054 0-8.297-1.785-16.197-4.988-23.304-8.983-19.991-29.217-33.951-52.711-33.951z" fill="#838383"/><path d="m326.468 341.883c-3.202 7.107-4.988 15.008-4.988 23.304 0 4.502.51 8.863 1.502 13.054 5.951 25.343 28.879 44.202 56.198 44.202 27.348 0 50.247-18.859 56.198-44.202.992-4.191 1.502-8.552 1.502-13.054 0-8.297-1.757-16.197-4.96-23.304-9.012-19.991-29.219-33.951-52.741-33.951-23.493 0-43.728 13.96-52.711 33.951z" fill="#838383"/><path d="m181.848 341.883c-8.984-19.991-29.219-33.951-52.713-33.951-4.081 0-8.049.425-11.874 1.218 19.215 3.285 35.17 15.97 42.907 33.13 3.202 7.107 4.96 15.008 4.96 23.304 0 4.502-.51 8.863-1.502 13.054-5.073 21.549-22.417 38.425-44.296 42.984 3.174.538 6.462.821 9.806.821 27.348 0 50.247-18.859 56.198-44.202.992-4.191 1.502-8.552 1.502-13.054 0-1.727-.085-3.426-.227-5.125-.566-6.427-2.21-12.544-4.761-18.179z" fill="#595959"/><path d="m431.921 341.883c-9.012-19.991-29.219-33.951-52.741-33.951-4.081 0-8.049.425-11.875 1.218 19.215 3.285 35.198 15.97 42.907 33.13 3.202 7.107 4.988 15.008 4.988 23.304 0 4.502-.538 8.863-1.53 13.054-5.073 21.549-22.389 38.425-44.296 42.984 3.174.538 6.462.821 9.806.821 27.348 0 50.247-18.859 56.198-44.173 0 0 0 0 0-.028.992-4.191 1.502-8.552 1.502-13.054 0-1.727-.057-3.426-.227-5.125-.567-6.399-2.211-12.516-4.733-18.151v-.029z" fill="#595959"/><path d="m462.925 218.651h-27.291c12.838 0 23.324 10.477 23.324 23.304v12.006h27.291c0-4.531 0-8.438 0-12.006 0-12.827-10.514-23.304-23.324-23.304z" fill="#ffbf00"/><path d="m458.957 290.857v51.083l27.291.057c0-17.584 0-32.082 0-44.173z" fill="#ffbf00"/><path d="m29.832 178.045v114.964h15.474v-21.18l.312-93.784z" fill="#595959"/><path d="m129.136 342.563c-12.611 0-22.814 10.137-22.814 22.625 0 12.516 10.202 22.653 22.814 22.653s22.814-10.137 22.814-22.653c-.001-12.488-10.203-22.625-22.814-22.625z" fill="#ececec"/><path d="m379.18 342.563c-12.583 0-22.814 10.137-22.814 22.625 0 12.516 10.231 22.653 22.814 22.653 12.611 0 22.814-10.137 22.814-22.653 0-12.488-10.203-22.625-22.814-22.625z" fill="#ececec"/><path d="m486.249 253.961h-49.737c-3.372 0-8.134 3.171-5.101 9.118l8.927 17.471c1.729 3.37 2.834 6.286 6.121 7.136l39.789 10.137v-43.862z" fill="#a6e7f0"/><path d="m486.249 253.961h-27.291v36.896l27.291 6.966z" fill="#6bd9e7"/><path d="m298.638 164.595h-59.288c-7.538 0-13.688 6.853-13.688 15.149v31.601c0 8.268 6.15 15.064 13.688 15.064l80.486-.028c12.753 0 19.356-8.41 13.376-22.087l-14.283-28.854c-4.818-11.015-6.943-10.845-20.291-10.845z" fill="#a6e7f0"/><path d="m174.055 164.595h-74.931c-7.028 0-12.781 5.777-12.781 12.799v36.245c0 7.022 5.753 12.771 12.781 12.771h74.931c7.028 0 12.781-5.748 12.781-12.771v-36.245c0-7.023-5.753-12.799-12.781-12.799z" fill="#a6e7f0"/><path d="m174.055 164.595h-29.332c7.028 0 12.781 5.777 12.781 12.799v36.245c0 7.022-5.753 12.771-12.781 12.771h29.332c7.028 0 12.781-5.748 12.781-12.771v-36.245c0-7.023-5.753-12.799-12.781-12.799z" fill="#6bd9e7"/><path d="m318.929 175.44c-4.818-11.015-6.943-10.845-20.292-10.845h-23.125c11.733.028 13.887.368 18.449 10.845l14.312 28.854c5.951 13.677-.624 22.087-13.405 22.087l-55.943.028h.425l80.486-.028c12.753 0 19.356-8.41 13.376-22.087z" fill="#6bd9e7"/></g><path d="m253.35 253.455h-25.138c-4.174 0-7.557 3.383-7.557 7.557 0 4.173 3.383 7.557 7.557 7.557h25.138c4.174 0 7.557-3.383 7.557-7.557 0-4.173-3.383-7.557-7.557-7.557z"/><path d="m493.806 335.588v-37.765-43.862-12.006c0-17.017-13.852-30.861-30.881-30.861h-60.931c-1.059 0-2.062.005-3.011.01-4.707.027-8.433.043-9.891-.73-1.707-.904-3.783-5.104-5.199-8.188l-26.776-58.265c-6.64-14.504-18.002-31.125-47.096-31.411v-7.719c0-12.567-10.243-22.791-22.833-22.791h-193.789c-12.59 0-22.832 10.224-22.832 22.791v7.706h-1.439c-.023 0-.045 0-.068 0-16.93 0-30.754 13.816-30.829 30.826l-.126 27.166h-17.086c-11.59 0-21.019 9.423-21.019 21.007v88.064c0 11.583 9.429 21.007 21.019 21.007h16.617v33.765c-14.126.087-25.592 11.595-25.592 25.731 0 14.191 11.552 25.736 25.752 25.736h29.485c8.692 25.66 33.126 44.201 61.854 44.201s53.163-18.541 61.855-44.202h126.335c8.692 25.661 33.126 44.202 61.855 44.202 28.723 0 53.153-18.534 61.85-44.186l45.22.126c14.199 0 25.751-11.558 25.751-25.764-.001-11.535-7.672-21.336-18.195-24.588zm-15.114-47.488-29.853-7.605c-.333-.515-.818-1.485-1.191-2.231-.19-.38-.385-.769-.581-1.151l-7.968-15.595h39.592v26.582zm-457.673-2.647c-3.256 0-5.905-2.644-5.905-5.893v-88.064c0-3.25 2.649-5.894 5.905-5.894h17.016l-.399 86.227v13.624zm16.777 85.232c-5.866 0-10.638-4.765-10.638-10.623s4.772-10.622 10.638-10.622h28.041c-1.273 5.044-1.958 10.318-1.958 15.748 0 1.853.097 3.683.252 5.497zm91.339 44.202c-27.649 0-50.143-22.295-50.143-49.699s22.494-49.699 50.143-49.699 50.144 22.295 50.144 49.699-22.495 49.699-50.144 49.699zm65.006-44.202c.154-1.814.252-3.644.252-5.497 0-5.431-.685-10.704-1.958-15.748h39.575c4.174 0 7.557-3.383 7.557-7.557 0-4.173-3.383-7.556-7.557-7.556h-45.502c-11.063-20.206-32.632-33.951-57.373-33.951s-46.31 13.746-57.373 33.951h-19.012v-62.463l.595-128.473c.039-8.709 7.085-15.781 15.732-15.781h.035 95.563c4.174 0 7.557-3.383 7.557-7.557 0-4.173-3.383-7.557-7.557-7.557h-78.994v-7.706c0-4.233 3.462-7.678 7.718-7.678h193.79c4.256 0 7.719 3.444 7.719 7.678v7.706h-96.168c-4.174 0-7.557 3.383-7.557 7.557 0 4.173 3.383 7.557 7.557 7.557h110.526c21.925 0 29.102 11.667 34.113 22.612l26.779 58.272c7.854 17.107 14.532 17.784 28.903 17.723.926-.005 1.901-.01 2.934-.01h60.931c8.693 0 15.767 7.064 15.767 15.748v4.45h-42.18c-4.743 0-9.365 2.542-11.776 6.475-2.431 3.968-2.453 8.937-.056 13.637l8.933 17.483c.179.347.35.689.516 1.024 1.666 3.33 4.183 8.362 10.463 9.985l34.099 8.687v30.728l-42.134-.088c-11.061-20.211-32.633-33.961-57.378-33.961-24.741 0-46.31 13.746-57.373 33.951h-50.461c-4.174 0-7.557 3.383-7.557 7.556s3.383 7.557 7.557 7.557h44.535c-1.273 5.044-1.958 10.318-1.958 15.748 0 1.853.097 3.683.251 5.497h-120.033zm185.039 44.202c-27.649 0-50.143-22.295-50.143-49.699s22.494-49.699 50.143-49.699 50.144 22.295 50.144 49.699-22.495 49.699-50.144 49.699zm107.091-44.06-42.087-.117c.156-1.822.253-3.66.253-5.522 0-5.423-.683-10.688-1.953-15.726l43.743.091c5.877.017 10.659 4.782 10.659 10.623 0 5.873-4.772 10.651-10.615 10.651z"/><path d="m129.135 335.006c-16.746 0-30.37 13.539-30.37 30.182 0 16.657 13.624 30.209 30.37 30.209 16.747 0 30.371-13.552 30.371-30.209 0-16.642-13.623-30.182-30.371-30.182zm0 45.278c-8.412 0-15.256-6.772-15.256-15.096 0-8.309 6.844-15.069 15.256-15.069 8.413 0 15.257 6.76 15.257 15.069.001 8.324-6.843 15.096-15.257 15.096z"/><path d="m379.18 335.006c-16.746 0-30.37 13.539-30.37 30.182 0 16.657 13.624 30.209 30.37 30.209 16.747 0 30.371-13.552 30.371-30.209 0-16.642-13.624-30.182-30.371-30.182zm0 45.278c-8.412 0-15.256-6.772-15.256-15.096 0-8.309 6.844-15.069 15.256-15.069 8.413 0 15.257 6.76 15.257 15.069 0 8.324-6.844 15.096-15.257 15.096z"/><path d="m239.353 233.966 80.483-.028c8.982 0 16.1-3.317 20.04-9.34 4.044-6.18 4.137-14.466.261-23.33-.048-.109-.098-.218-.151-.325l-14.207-28.698c-6.424-14.592-12.419-15.206-26.447-15.206-.032 0-.064 0-.097 0h-59.885c-11.715 0-21.245 10.186-21.245 22.706v31.601c0 12.473 9.53 22.62 21.248 22.62zm-6.134-54.222c0-4.116 2.808-7.593 6.131-7.593h59.888c4.304.008 8.37-.001 9.508.564.286.142 1.175.986 3.259 5.752.048.109.099.217.151.324l14.199 28.684c1.655 3.853 1.983 7.153.873 8.849-1.024 1.566-3.787 2.501-7.395 2.501l-80.483.028c-3.323 0-6.131-3.438-6.131-7.508z"/><path d="m174.055 157.038h-74.931c-11.214 0-20.338 9.132-20.338 20.355v36.245c0 11.208 9.124 20.327 20.338 20.327h74.931c11.214 0 20.338-9.119 20.338-20.327v-36.245c0-11.223-9.124-20.355-20.338-20.355zm5.224 56.601c0 2.826-2.393 5.214-5.224 5.214h-74.931c-2.831 0-5.224-2.388-5.224-5.214v-36.245c0-2.842 2.393-5.242 5.224-5.242h74.931c2.831 0 5.224 2.401 5.224 5.242z"/></svg>