<svg id="Flat" height="512" viewBox="0 0 64 64" width="512" xmlns="http://www.w3.org/2000/svg"><g id="Stroke_copy_2" data-name="Stroke copy 2"><path d="m47 57-30-6v-44l30 6z" fill="#ffe5a7"/><path d="m31.65 46.93a12 12 0 0 1 -9.65-11.77v-27.16l-5-1v44l30 6v-7z" fill="#ffd879"/><path d="m61 54-14 3v-44l14-3z" fill="#ffe5a7"/><path d="m52 41.1v-29.17l-5 1.07v44l14-3v-5a8 8 0 0 1 -9-7.9z" fill="#ffd879"/><path d="m17 51-14 3v-44l14-3z" fill="#ffe5a7"/><path d="m8 38.1v-29.17l-5 1.07v44l14-3v-5a8 8 0 0 1 -9-7.9z" fill="#ffd879"/><path d="m32 35s-11-4-11-13.5a5.5 5.5 0 0 1 11 0 5.5 5.5 0 0 1 11 0c0 9.5-11 13.5-11 13.5z" fill="#ff9b9b"/><path d="m25.89 22a11.6 11.6 0 0 1 -.89-3.94 5.8 5.8 0 0 1 .24-1.91 5.49 5.49 0 0 0 -4.24 5.35c0 9.5 11 13.5 11 13.5s6.59-2.4 9.57-7.89c-5.34 3.02-13 1.32-15.68-5.11z" fill="#db6060"/><path d="m54 26s-4-1.47-4-5a2 2 0 1 1 4 0 2 2 0 1 1 4 0c0 3.53-4 5-4 5z" fill="#ff9b9b"/><path d="m52.24 20.47a4.44 4.44 0 0 1 -.24-1.47 2 2 0 0 0 -2 2c0 3.5 4 5 4 5a7 7 0 0 0 3.66-3.3 4 4 0 0 1 -5.42-2.23z" fill="#db6060"/><path d="m7 33s-4-1.47-4-5a2 2 0 1 1 4 0 2 2 0 1 1 4 0c0 3.53-4 5-4 5z" fill="#ff9b9b"/><path d="m5.24 27.47a4.44 4.44 0 0 1 -.24-1.47 2 2 0 0 0 -2 2c0 3.5 4 5 4 5a7 7 0 0 0 3.66-3.3 4 4 0 0 1 -5.42-2.23z" fill="#db6060"/><path d="m42 51-4-1v-4l4 1z" fill="#7ecf7e"/><g fill="#4daf4d"><path d="m38 48.2v1.8l4 1v-2z"/><circle cx="32" cy="39" r="1"/><circle cx="36" cy="39" r="1"/><circle cx="40" cy="37" r="1"/><circle cx="42" cy="34" r="1"/><circle cx="51" cy="33" r="1"/><circle cx="53" cy="30" r="1"/><circle cx="28" cy="39" r="1"/><circle cx="25" cy="41" r="1"/><circle cx="22" cy="43" r="1"/><circle cx="18" cy="43" r="1"/><circle cx="46" cy="35" r="1"/><circle cx="13" cy="43" r="1"/><circle cx="10" cy="41" r="1"/><circle cx="8" cy="37" r="1"/></g><path d="m56 40a1 1 0 0 1 -1-1v-9a1 1 0 0 1 2 0v9a1 1 0 0 1 -1 1z" fill="#9ed8ec"/><path d="m51 52a1 1 0 0 1 -1-1v-8a1 1 0 0 1 2 0v8a1 1 0 0 1 -1 1z" fill="#6bbeda"/><path d="m32 51a1 1 0 0 1 -.29 0l-10-3a1 1 0 0 1 .58-2l10 3a1 1 0 0 1 -.29 2z" fill="#6bbeda"/><path d="m29 53.4 4 .8v-9.2l-4-1z" fill="#9ed8ec"/><path d="m29 53.4 4 .8v-7l-1.35-.27a12.29 12.29 0 0 1 -2.65-.87z" fill="#6bbeda"/><path d="m61 41-14 4v-4l14-4z" fill="#9ed8ec"/><path d="m52 41.1v-1.53l-5 1.43v4l5.36-1.53a8 8 0 0 1 -.36-2.37z" fill="#6bbeda"/><path d="m8 20a1 1 0 0 0 1-1v-10a.76.76 0 0 0 -.06-.27l-1.94.41v9.86a1 1 0 0 0 1 1z" fill="#9ed8ec"/><path d="m8 44a1 1 0 0 0 -1 1v8.14l2-.43v-7.71a1 1 0 0 0 -1-1z" fill="#6bbeda"/><path d="m8 20v-11.07l-1 .21v9.86a1 1 0 0 0 1 1z" fill="#6bbeda"/></g></svg>